<?xml version="1.0" standalone="no"?><!DOCTYPE svg PUBLIC "-//W3C//DTD SVG 1.1//EN" "http://www.w3.org/Graphics/SVG/1.1/DTD/svg11.dtd"><svg height="1200" node-id="1" sillyvg="true" template-height="1200" template-width="1200" version="1.1" viewBox="0 0 1200 1200" width="1200" xmlns="http://www.w3.org/2000/svg" xmlns:xlink="http://www.w3.org/1999/xlink"><defs node-id="131"><linearGradient gradientUnits="userSpaceOnUse" id="SVGID_1_" node-id="64" spreadMethod="pad" x1="100.9628" x2="982.0249" y1="906.3031" y2="906.3031"><stop offset="0" stop-color="#405ab1"></stop><stop offset="1" stop-color="#0b1066"></stop></linearGradient><linearGradient gradientUnits="userSpaceOnUse" id="SVGID_2_" node-id="107" spreadMethod="pad" x1="647.08" x2="973.2299" y1="362.8548" y2="927.763"><stop offset="0" stop-color="#405ab1"></stop><stop offset="1" stop-color="#0b1066"></stop></linearGradient></defs><g node-id="398"><path d="M 379.48 268.35 C 485.48 288.23 647.14 302.95 763.52 251.91 C 879.90 200.87 1009.70 197.41 1060.72 289.97 C 1111.75 382.54 1051.77 495.87 1019.54 533.93 C 987.31 571.99 1002.53 645.53 1035.65 682.73 C 1068.77 719.93 1106.37 908.52 896.00 928.42 C 685.63 948.32 100.18 1037.42 74.22 772.70 C 64.37 693.97 149.42 655.91 135.09 597.95 C 120.77 539.99 71.53 442.23 153.89 351.39 C 236.25 260.55 319.50 257.10 379.48 268.35 Z" fill="#f3f6fa" fill-rule="nonzero" group-id="1" node-id="149" stroke="none" target-height="840.01" target-width="1047.38" target-x="64.37" target-y="197.41"></path><path d="M 1059.48 328.75 L 952.47 221.75 C 951.42 220.70 949.72 220.70 948.67 221.75 L 841.67 328.75 C 840.62 329.80 840.62 331.50 841.67 332.55 L 948.68 439.56 C 949.73 440.61 951.43 440.61 952.48 439.56 L 1059.49 332.55 C 1060.53 331.50 1060.53 329.80 1059.48 328.75 Z" fill="#d4f1f3" fill-rule="nonzero" group-id="1" node-id="151" stroke="none" target-height="219.90999" target-width="219.91003" target-x="840.62" target-y="220.7"></path><path d="M 1108.97 922.47 L 1068.63 882.13 C 1067.58 881.08 1065.88 881.08 1064.83 882.13 L 1024.49 922.47 C 1023.44 923.52 1023.44 925.22 1024.49 926.27 L 1064.83 966.61 C 1065.88 967.66 1067.58 967.66 1068.63 966.61 L 1108.97 926.27 C 1110.02 925.23 1110.02 923.52 1108.97 922.47 Z" fill="#c7d8fd" fill-rule="nonzero" group-id="1" node-id="153" stroke="none" target-height="86.579956" target-width="86.58002" target-x="1023.44" target-y="881.08"></path><path d="M 153.55 811.29 L 113.21 770.95 C 112.16 769.90 110.46 769.90 109.41 770.95 L 69.07 811.29 C 68.02 812.34 68.02 814.04 69.07 815.09 L 109.41 855.43 C 110.46 856.48 112.16 856.48 113.21 855.43 L 153.55 815.09 C 154.60 814.04 154.60 812.34 153.55 811.29 Z" fill="#fabbd8" fill-rule="nonzero" group-id="1" node-id="155" stroke="none" target-height="86.579956" target-width="86.58001" target-x="68.02" target-y="769.9"></path><path d="M 115.20 683.83 L 94.86 663.49 C 94.38 663.01 93.61 663.01 93.13 663.49 L 72.79 683.83 C 72.31 684.31 72.31 685.08 72.79 685.56 L 93.13 705.90 C 93.61 706.38 94.38 706.38 94.86 705.90 L 115.20 685.56 C 115.68 685.08 115.68 684.31 115.20 683.83 Z" fill="#c7d8fd" fill-rule="nonzero" group-id="1" node-id="157" stroke="none" target-height="43.369995" target-width="43.370003" target-x="72.31" target-y="663.01"></path><path d="M 443.10 220.33 L 387.86 165.09 C 387.38 164.61 386.61 164.61 386.13 165.09 L 330.89 220.33 C 330.41 220.81 330.41 221.58 330.89 222.06 L 386.13 277.30 C 386.61 277.78 387.38 277.78 387.86 277.30 L 443.10 222.06 C 443.58 221.58 443.58 220.81 443.10 220.33 Z" fill="#fce088" fill-rule="nonzero" group-id="1" node-id="159" stroke="none" target-height="113.17" target-width="113.16998" target-x="330.41" target-y="164.61"></path><g node-id="399"><path d="M 847.22 440.68 L 237.58 440.68 C 224.94 440.68 214.69 450.93 214.69 463.57 L 214.69 852.65 C 214.69 865.29 224.94 875.54 237.58 875.54 L 455.22 875.54 L 455.22 897.89 L 629.58 897.89 L 629.58 875.54 L 847.22 875.54 C 859.86 875.54 870.11 865.29 870.11 852.65 L 870.11 463.57 C 870.11 450.93 859.86 440.68 847.22 440.68 Z" fill="#6179ef" fill-rule="nonzero" group-id="1,2" node-id="163" stroke="none" target-height="457.21002" target-width="655.42" target-x="214.69" target-y="440.68"></path><path d="M 837.89 844.87 L 246.65 844.87 C 245.85 844.87 245.20 844.22 245.20 843.42 L 245.20 472.81 C 245.20 472.01 245.85 471.36 246.65 471.36 L 837.89 471.36 C 838.69 471.36 839.34 472.01 839.34 472.81 L 839.34 843.42 C 839.34 844.22 838.69 844.87 837.89 844.87 Z" fill="#f1f6ff" fill-rule="nonzero" group-id="1,2" node-id="165" stroke="none" target-height="373.51" target-width="594.14" target-x="245.2" target-y="471.36"></path><g node-id="403"><path d="M 637.57 528.05 L 660.88 528.05 L 660.88 578.12 L 637.57 578.12 Z" fill="#d0e2ff" fill-rule="nonzero" group-id="1,2,6" node-id="169" stroke="none" target-height="50.070007" target-width="23.309998" target-x="637.57" target-y="528.05"></path><path d="M 676.20 528.05 L 801.73 528.05 L 801.73 536.05 L 676.20 536.05 Z" fill="#d0e2ff" fill-rule="nonzero" group-id="1,2,6" node-id="171" stroke="none" target-height="8" target-width="125.52997" target-x="676.2" target-y="528.05"></path><path d="M 676.20 542.08 L 801.73 542.08 L 801.73 550.08 L 676.20 550.08 Z" fill="#d0e2ff" fill-rule="nonzero" group-id="1,2,6" node-id="173" stroke="none" target-height="8" target-width="125.52997" target-x="676.2" target-y="542.08"></path><path d="M 676.20 556.10 L 801.73 556.10 L 801.73 564.10 L 676.20 564.10 Z" fill="#d0e2ff" fill-rule="nonzero" group-id="1,2,6" node-id="175" stroke="none" target-height="8" target-width="125.52997" target-x="676.2" target-y="556.1"></path><path d="M 676.20 570.13 L 801.73 570.13 L 801.73 578.13 L 676.20 578.13 Z" fill="#d0e2ff" fill-rule="nonzero" group-id="1,2,6" node-id="177" stroke="none" target-height="8" target-width="125.52997" target-x="676.2" target-y="570.13"></path><path d="M 637.57 596.75 L 660.88 596.75 L 660.88 646.82 L 637.57 646.82 Z" fill="#d0e2ff" fill-rule="nonzero" group-id="1,2,6" node-id="179" stroke="none" target-height="50.070007" target-width="23.309998" target-x="637.57" target-y="596.75"></path><path d="M 676.20 596.75 L 801.73 596.75 L 801.73 604.75 L 676.20 604.75 Z" fill="#d0e2ff" fill-rule="nonzero" group-id="1,2,6" node-id="181" stroke="none" target-height="8" target-width="125.52997" target-x="676.2" target-y="596.75"></path><path d="M 676.20 610.78 L 801.73 610.78 L 801.73 618.78 L 676.20 618.78 Z" fill="#d0e2ff" fill-rule="nonzero" group-id="1,2,6" node-id="183" stroke="none" target-height="8" target-width="125.52997" target-x="676.2" target-y="610.78"></path><path d="M 676.20 624.80 L 801.73 624.80 L 801.73 632.80 L 676.20 632.80 Z" fill="#d0e2ff" fill-rule="nonzero" group-id="1,2,6" node-id="185" stroke="none" target-height="8" target-width="125.52997" target-x="676.2" target-y="624.8"></path><path d="M 676.20 638.83 L 801.73 638.83 L 801.73 646.83 L 676.20 646.83 Z" fill="#d0e2ff" fill-rule="nonzero" group-id="1,2,6" node-id="187" stroke="none" target-height="8" target-width="125.52997" target-x="676.2" target-y="638.83"></path><path d="M 637.57 666.00 L 660.88 666.00 L 660.88 716.07 L 637.57 716.07 Z" fill="#d0e2ff" fill-rule="nonzero" group-id="1,2,6" node-id="189" stroke="none" target-height="50.070007" target-width="23.309998" target-x="637.57" target-y="666"></path><path d="M 676.20 666.00 L 801.73 666.00 L 801.73 674.00 L 676.20 674.00 Z" fill="#d0e2ff" fill-rule="nonzero" group-id="1,2,6" node-id="191" stroke="none" target-height="8" target-width="125.52997" target-x="676.2" target-y="666"></path><path d="M 676.20 680.03 L 801.73 680.03 L 801.73 688.03 L 676.20 688.03 Z" fill="#d0e2ff" fill-rule="nonzero" group-id="1,2,6" node-id="193" stroke="none" target-height="8" target-width="125.52997" target-x="676.2" target-y="680.03"></path><path d="M 676.20 694.05 L 801.73 694.05 L 801.73 702.05 L 676.20 702.05 Z" fill="#d0e2ff" fill-rule="nonzero" group-id="1,2,6" node-id="195" stroke="none" target-height="8" target-width="125.52997" target-x="676.2" target-y="694.05"></path><path d="M 676.20 708.07 L 801.73 708.07 L 801.73 716.07 L 676.20 716.07 Z" fill="#d0e2ff" fill-rule="nonzero" group-id="1,2,6" node-id="197" stroke="none" target-height="8" target-width="125.52997" target-x="676.2" target-y="708.07"></path><path d="M 569.49 563.73 C 567.16 563.43 564.80 563.23 562.40 563.23 C 531.55 563.23 506.53 588.24 506.53 619.10 C 506.53 624.27 507.29 629.24 508.60 633.99 L 557.60 614.94 L 569.49 563.73 Z" fill="#d0e2ff" fill-rule="nonzero" group-id="1,2,6" node-id="199" stroke="none" target-height="70.76001" target-width="62.95999" target-x="506.53" target-y="563.23"></path><path d="M 580.44 566.27 L 567.20 623.27 L 512.66 644.48 C 521.91 662.57 540.68 674.98 562.39 674.98 C 593.25 674.98 618.26 649.97 618.26 619.11 C 618.26 594.57 602.43 573.78 580.44 566.27 Z" fill="#d0e2ff" fill-rule="nonzero" group-id="1,2,6" node-id="201" stroke="none" target-height="108.70996" target-width="105.60004" target-x="512.66" target-y="566.27"></path><path d="M 442.38 545.57 L 465.56 545.57 L 465.56 704.76 L 442.38 704.76 Z" fill="#d0e2ff" fill-rule="nonzero" group-id="1,2,6" node-id="203" stroke="none" target-height="159.19" target-width="23.179993" target-x="442.38" target-y="545.57"></path><path d="M 410.72 545.57 L 433.89 545.57 L 433.89 704.76 L 410.72 704.76 Z" fill="#d0e2ff" fill-rule="nonzero" group-id="1,2,6" node-id="205" stroke="none" target-height="159.19" target-width="23.170013" target-x="410.72" target-y="545.57"></path><path d="M 379.06 545.57 L 402.24 545.57 L 402.24 704.76 L 379.06 704.76 Z" fill="#d0e2ff" fill-rule="nonzero" group-id="1,2,6" node-id="207" stroke="none" target-height="159.19" target-width="23.179993" target-x="379.06" target-y="545.57"></path><path d="M 347.40 545.57 L 370.58 545.57 L 370.58 704.76 L 347.40 704.76 Z" fill="#d0e2ff" fill-rule="nonzero" group-id="1,2,6" node-id="209" stroke="none" target-height="159.19" target-width="23.179993" target-x="347.4" target-y="545.57"></path><path d="M 315.74 642.96 L 338.91 642.96 L 338.91 704.76 L 315.74 704.76 Z" fill="#d0e2ff" fill-rule="nonzero" group-id="1,2,6" node-id="211" stroke="none" target-height="61.799988" target-width="23.170013" target-x="315.74" target-y="642.96"></path><g node-id="408"><path d="M 328.75 588.77 L 330.17 593.00 L 330.99 597.20 L 331.23 601.40 L 330.92 605.60 L 330.09 609.65 L 328.75 613.58 L 326.92 617.31 L 324.64 620.76 L 321.89 623.95 L 318.75 626.75 L 315.20 629.14 L 311.20 631.13 L 306.97 632.55 L 302.77 633.36 L 298.57 633.60 L 294.37 633.30 L 290.32 632.47 L 286.39 631.13 L 282.66 629.30 L 279.22 627.02 L 276.03 624.27 L 273.23 621.13 L 270.83 617.58 L 268.84 613.58 L 267.43 609.35 L 266.61 605.15 L 266.37 600.95 L 266.68 596.75 L 267.50 592.70 L 268.84 588.77 L 270.67 585.04 L 272.95 581.60 L 275.71 578.41 L 278.85 575.60 L 282.39 573.21 L 286.39 571.22 L 290.62 569.80 L 294.82 568.99 L 299.02 568.75 L 303.23 569.06 L 307.27 569.88 L 311.20 571.22 L 314.93 573.05 L 318.38 575.33 L 321.57 578.08 L 324.37 581.23 L 326.76 584.77 L 328.75 588.77 Z" fill="#d0e2ff" fill-rule="nonzero" group-id="1,2,6,11" node-id="215" stroke="none" target-height="64.849976" target-width="64.860016" target-x="266.37" target-y="568.75"></path></g><path d="M 391.30 735.15 L 391.30 746.51 C 400.12 748.07 407.08 755.02 408.64 763.83 L 420.00 763.83 C 418.28 748.81 406.33 736.87 391.30 735.15 Z" fill="#d0e2ff" fill-rule="nonzero" group-id="1,2,6" node-id="218" stroke="none" target-height="28.679993" target-width="28.700012" target-x="391.3" target-y="735.15"></path><path d="M 383.81 746.52 L 383.81 735.16 C 368.81 736.90 356.88 748.83 355.15 763.84 L 366.51 763.84 C 368.07 755.03 375.01 748.09 383.81 746.52 Z" fill="#d0e2ff" fill-rule="nonzero" group-id="1,2,6" node-id="220" stroke="none" target-height="28.680054" target-width="28.660004" target-x="355.15" target-y="735.16"></path><path d="M 366.51 771.33 L 355.15 771.33 C 356.88 786.34 368.80 798.27 383.81 800.00 L 383.81 788.64 C 375.01 787.07 368.08 780.13 366.51 771.33 Z" fill="#d0e2ff" fill-rule="nonzero" group-id="1,2,6" node-id="222" stroke="none" target-height="28.669983" target-width="28.660004" target-x="355.15" target-y="771.33"></path><path d="M 391.30 788.65 L 391.30 800.01 C 406.33 798.29 418.28 786.35 420.00 771.33 L 408.64 771.33 C 407.08 780.14 400.12 787.09 391.30 788.65 Z" fill="#d0e2ff" fill-rule="nonzero" group-id="1,2,6" node-id="224" stroke="none" target-height="28.679993" target-width="28.700012" target-x="391.3" target-y="771.33"></path><path d="M 374.89 761.99 L 400.27 761.99 L 400.27 773.16 L 374.89 773.16 Z" fill="#d0e2ff" fill-rule="nonzero" group-id="1,2,6" node-id="226" stroke="none" target-height="11.169983" target-width="25.379974" target-x="374.89" target-y="761.99"></path><path d="M 302.95 735.15 L 302.95 746.51 C 311.77 748.07 318.73 755.02 320.29 763.83 L 331.65 763.83 C 329.93 748.81 317.98 736.87 302.95 735.15 Z" fill="#d0e2ff" fill-rule="nonzero" group-id="1,2,6" node-id="228" stroke="none" target-height="28.679993" target-width="28.699982" target-x="302.95" target-y="735.15"></path><path d="M 295.46 746.52 L 295.46 735.16 C 280.46 736.90 268.53 748.83 266.80 763.84 L 278.16 763.84 C 279.72 755.03 286.66 748.09 295.46 746.52 Z" fill="#d0e2ff" fill-rule="nonzero" group-id="1,2,6" node-id="230" stroke="none" target-height="28.680054" target-width="28.660004" target-x="266.8" target-y="735.16"></path><path d="M 278.16 771.33 L 266.80 771.33 C 268.53 786.34 280.45 798.27 295.46 800.00 L 295.46 788.64 C 286.66 787.07 279.72 780.13 278.16 771.33 Z" fill="#d0e2ff" fill-rule="nonzero" group-id="1,2,6" node-id="232" stroke="none" target-height="28.669983" target-width="28.660004" target-x="266.8" target-y="771.33"></path><path d="M 302.95 788.65 L 302.95 800.01 C 317.98 798.29 329.93 786.35 331.65 771.33 L 320.29 771.33 C 318.73 780.14 311.77 787.09 302.95 788.65 Z" fill="#d0e2ff" fill-rule="nonzero" group-id="1,2,6" node-id="234" stroke="none" target-height="28.679993" target-width="28.699982" target-x="302.95" target-y="771.33"></path><path d="M 286.53 761.99 L 311.91 761.99 L 311.91 773.16 L 286.53 773.16 Z" fill="#d0e2ff" fill-rule="nonzero" group-id="1,2,6" node-id="236" stroke="none" target-height="11.169983" target-width="25.380005" target-x="286.53" target-y="761.99"></path><path d="M 479.45 735.15 L 479.45 746.51 C 488.27 748.07 495.23 755.02 496.79 763.83 L 508.15 763.83 C 506.43 748.81 494.48 736.87 479.45 735.15 Z" fill="#d0e2ff" fill-rule="nonzero" group-id="1,2,6" node-id="238" stroke="none" target-height="28.679993" target-width="28.699982" target-x="479.45" target-y="735.15"></path><path d="M 471.96 746.52 L 471.96 735.16 C 456.96 736.90 445.03 748.83 443.30 763.84 L 454.66 763.84 C 456.22 755.03 463.16 748.09 471.96 746.52 Z" fill="#d0e2ff" fill-rule="nonzero" group-id="1,2,6" node-id="240" stroke="none" target-height="28.680054" target-width="28.660004" target-x="443.3" target-y="735.16"></path><path d="M 454.66 771.33 L 443.30 771.33 C 445.03 786.34 456.95 798.27 471.96 800.00 L 471.96 788.64 C 463.16 787.07 456.22 780.13 454.66 771.33 Z" fill="#d0e2ff" fill-rule="nonzero" group-id="1,2,6" node-id="242" stroke="none" target-height="28.669983" target-width="28.660004" target-x="443.3" target-y="771.33"></path><path d="M 479.45 788.65 L 479.45 800.01 C 494.48 798.29 506.43 786.35 508.15 771.33 L 496.79 771.33 C 495.23 780.14 488.27 787.09 479.45 788.65 Z" fill="#d0e2ff" fill-rule="nonzero" group-id="1,2,6" node-id="244" stroke="none" target-height="28.679993" target-width="28.699982" target-x="479.45" target-y="771.33"></path><path d="M 463.04 761.99 L 488.42 761.99 L 488.42 773.16 L 463.04 773.16 Z" fill="#d0e2ff" fill-rule="nonzero" group-id="1,2,6" node-id="246" stroke="none" target-height="11.169983" target-width="25.380005" target-x="463.04" target-y="761.99"></path><path d="M 566.98 735.15 L 566.98 746.51 C 575.80 748.07 582.76 755.02 584.32 763.83 L 595.68 763.83 C 593.96 748.81 582.01 736.87 566.98 735.15 Z" fill="#d0e2ff" fill-rule="nonzero" group-id="1,2,6" node-id="248" stroke="none" target-height="28.679993" target-width="28.700012" target-x="566.98" target-y="735.15"></path><path d="M 530.83 763.83 L 542.19 763.83 C 543.75 755.03 550.69 748.09 559.49 746.52 L 559.49 735.16 C 544.48 736.89 532.55 748.83 530.83 763.83 Z" fill="#d0e2ff" fill-rule="nonzero" group-id="1,2,6" node-id="250" stroke="none" target-height="28.670044" target-width="28.659973" target-x="530.83" target-y="735.16"></path><path d="M 542.19 771.33 L 530.83 771.33 C 532.56 786.34 544.48 798.27 559.49 800.00 L 559.49 788.64 C 550.69 787.07 543.75 780.13 542.19 771.33 Z" fill="#d0e2ff" fill-rule="nonzero" group-id="1,2,6" node-id="252" stroke="none" target-height="28.669983" target-width="28.659973" target-x="530.83" target-y="771.33"></path><path d="M 566.98 788.65 L 566.98 800.01 C 582.01 798.29 593.96 786.35 595.68 771.33 L 584.32 771.33 C 582.76 780.14 575.80 787.09 566.98 788.65 Z" fill="#d0e2ff" fill-rule="nonzero" group-id="1,2,6" node-id="254" stroke="none" target-height="28.679993" target-width="28.700012" target-x="566.98" target-y="771.33"></path><path d="M 550.56 761.99 L 575.94 761.99 L 575.94 773.16 L 550.56 773.16 Z" fill="#d0e2ff" fill-rule="nonzero" group-id="1,2,6" node-id="256" stroke="none" target-height="11.169983" target-width="25.380005" target-x="550.56" target-y="761.99"></path><path d="M 655.13 735.15 L 655.13 746.51 C 663.95 748.07 670.91 755.02 672.47 763.83 L 683.83 763.83 C 682.10 748.81 670.15 736.87 655.13 735.15 Z" fill="#d0e2ff" fill-rule="nonzero" group-id="1,2,6" node-id="258" stroke="none" target-height="28.679993" target-width="28.700012" target-x="655.13" target-y="735.15"></path><path d="M 647.63 746.52 L 647.63 735.16 C 632.63 736.90 620.70 748.83 618.97 763.84 L 630.33 763.84 C 631.90 755.03 638.84 748.09 647.63 746.52 Z" fill="#d0e2ff" fill-rule="nonzero" group-id="1,2,6" node-id="260" stroke="none" target-height="28.680054" target-width="28.660034" target-x="618.97" target-y="735.16"></path><path d="M 630.34 771.33 L 618.98 771.33 C 620.71 786.34 632.63 798.27 647.64 800.00 L 647.64 788.64 C 638.84 787.07 631.90 780.13 630.34 771.33 Z" fill="#d0e2ff" fill-rule="nonzero" group-id="1,2,6" node-id="262" stroke="none" target-height="28.669983" target-width="28.660034" target-x="618.98" target-y="771.33"></path><path d="M 655.13 788.65 L 655.13 800.01 C 670.16 798.29 682.10 786.35 683.83 771.33 L 672.47 771.33 C 670.90 780.14 663.94 787.09 655.13 788.65 Z" fill="#d0e2ff" fill-rule="nonzero" group-id="1,2,6" node-id="264" stroke="none" target-height="28.679993" target-width="28.700012" target-x="655.13" target-y="771.33"></path><path d="M 638.71 761.99 L 664.09 761.99 L 664.09 773.16 L 638.71 773.16 Z" fill="#d0e2ff" fill-rule="nonzero" group-id="1,2,6" node-id="266" stroke="none" target-height="11.169983" target-width="25.380005" target-x="638.71" target-y="761.99"></path></g><path d="M 975.40 917.48 L 892.89 917.48 C 904.45 909.86 912.09 896.77 912.09 881.89 L 912.09 881.89 L 170.90 881.89 L 170.90 881.89 C 170.90 896.77 178.54 909.86 190.10 917.48 L 107.59 917.48 C 103.93 917.48 100.97 920.44 100.97 924.10 C 100.97 927.76 103.93 930.72 107.59 930.72 L 975.40 930.72 C 979.06 930.72 982.02 927.76 982.02 924.10 C 982.02 920.44 979.06 917.48 975.40 917.48 Z" fill="url(#SVGID_1_)" fill-rule="nonzero" group-id="1,2" node-id="269" stroke="none" target-height="48.829956" target-width="881.05005" target-x="100.97" target-y="881.89"></path></g><g node-id="400"><g node-id="404"><path d="M 562.68 670.00 L 116.88 670.00 C 113.08 670.00 110.00 666.92 110.00 663.12 L 110.00 329.81 C 110.00 326.01 113.08 322.93 116.88 322.93 L 562.68 322.93 C 566.48 322.93 569.56 326.01 569.56 329.81 L 569.56 663.12 C 569.57 666.92 566.48 670.00 562.68 670.00 Z" fill="#0b1066" fill-opacity="0.19" fill-rule="nonzero" group-id="1,3,7" node-id="276" stroke="none" target-height="347.07" target-width="459.57" target-x="110" target-y="322.93"></path></g><path d="M 547.00 650.41 L 116.89 650.41 C 113.09 650.41 110.01 647.33 110.01 643.53 L 110.01 329.81 C 110.01 326.01 113.09 322.93 116.89 322.93 L 547.00 322.93 C 550.80 322.93 553.88 326.01 553.88 329.81 L 553.88 643.53 C 553.88 647.33 550.80 650.41 547.00 650.41 Z" fill="#f1f6ff" fill-rule="nonzero" group-id="1,3" node-id="279" stroke="none" target-height="327.47998" target-width="443.87" target-x="110.01" target-y="322.93"></path><path d="M 553.88 379.46 L 110.00 379.46 L 110.00 329.82 C 110.00 326.02 113.08 322.94 116.88 322.94 L 547.00 322.94 C 550.80 322.94 553.88 326.02 553.88 329.82 L 553.88 379.46 Z" fill="#99a2eb" fill-rule="nonzero" group-id="1,3" node-id="281" stroke="none" target-height="56.51999" target-width="443.88" target-x="110" target-y="322.94"></path><path d="M 154.12 352.94 C 154.12 359.51 148.80 364.83 142.23 364.83 C 135.66 364.83 130.34 359.51 130.34 352.94 C 130.34 346.37 135.66 341.05 142.23 341.05 C 148.80 341.05 154.12 346.37 154.12 352.94 Z" fill="#ffffff" fill-rule="nonzero" group-id="1,3" node-id="283" stroke="none" target-height="23.779999" target-width="23.779999" target-x="130.34" target-y="341.05"></path><path d="M 191.43 352.94 C 191.43 359.51 186.11 364.83 179.54 364.83 C 172.97 364.83 167.65 359.51 167.65 352.94 C 167.65 346.37 172.97 341.05 179.54 341.05 C 186.11 341.05 191.43 346.37 191.43 352.94 Z" fill="#ffffff" fill-rule="nonzero" group-id="1,3" node-id="285" stroke="none" target-height="23.779999" target-width="23.779999" target-x="167.65" target-y="341.05"></path><path d="M 228.04 352.94 C 228.04 359.51 222.72 364.83 216.15 364.83 C 209.58 364.83 204.26 359.51 204.26 352.94 C 204.26 346.37 209.58 341.05 216.15 341.05 C 222.72 341.05 228.04 346.37 228.04 352.94 Z" fill="#ffffff" fill-rule="nonzero" group-id="1,3" node-id="287" stroke="none" target-height="23.779999" target-width="23.779999" target-x="204.26" target-y="341.05"></path><path d="M 134.72 428.74 L 241.57 428.74 L 241.57 444.23 L 134.72 444.23 Z" fill="#b4d1ff" fill-rule="nonzero" group-id="1,3,8" node-id="291" stroke="none" target-height="15.490021" target-width="106.850006" target-x="134.72" target-y="428.74"></path><path d="M 134.72 564.74 L 241.57 564.74 L 241.57 580.23 L 134.72 580.23 Z" fill="#b4d1ff" fill-rule="nonzero" group-id="1,3,8" node-id="293" stroke="none" target-height="15.48999" target-width="106.850006" target-x="134.72" target-y="564.74"></path><path d="M 134.72 472.54 L 222.64 472.54 L 222.64 488.03 L 134.72 488.03 Z" fill="#b4d1ff" fill-rule="nonzero" group-id="1,3,8" node-id="295" stroke="none" target-height="15.48999" target-width="87.92" target-x="134.72" target-y="472.54"></path><path d="M 134.72 516.13 L 222.64 516.13 L 222.64 531.62 L 134.72 531.62 Z" fill="#b4d1ff" fill-rule="nonzero" group-id="1,3,8" node-id="297" stroke="none" target-height="15.48999" target-width="87.92" target-x="134.72" target-y="516.13"></path><path d="M 421.01 428.74 L 527.86 428.74 L 527.86 444.23 L 421.01 444.23 Z" fill="#b4d1ff" fill-rule="nonzero" group-id="1,3,8" node-id="299" stroke="none" target-height="15.490021" target-width="106.849976" target-x="421.01" target-y="428.74"></path><path d="M 421.01 564.74 L 527.86 564.74 L 527.86 580.23 L 421.01 580.23 Z" fill="#b4d1ff" fill-rule="nonzero" group-id="1,3,8" node-id="301" stroke="none" target-height="15.48999" target-width="106.849976" target-x="421.01" target-y="564.74"></path><path d="M 439.94 472.54 L 527.86 472.54 L 527.86 488.03 L 439.94 488.03 Z" fill="#b4d1ff" fill-rule="nonzero" group-id="1,3,8" node-id="303" stroke="none" target-height="15.48999" target-width="87.91998" target-x="439.94" target-y="472.54"></path><path d="M 439.94 516.13 L 527.86 516.13 L 527.86 531.62 L 439.94 531.62 Z" fill="#b4d1ff" fill-rule="nonzero" group-id="1,3,8" node-id="305" stroke="none" target-height="15.48999" target-width="87.91998" target-x="439.94" target-y="516.13"></path><path d="M 425.14 502.94 C 425.14 555.01 382.93 597.22 330.86 597.22 C 278.79 597.22 236.58 555.01 236.58 502.94 C 236.58 450.87 278.79 408.66 330.86 408.66 C 382.93 408.66 425.14 450.87 425.14 502.94 Z" fill="#6179ef" fill-rule="nonzero" group-id="1,3" node-id="308" stroke="none" target-height="188.55997" target-width="188.56001" target-x="236.58" target-y="408.66"></path><path d="M 261.33 516.91 C 264.44 516.54 266.66 513.72 266.29 510.61 C 265.98 508.05 265.83 505.42 265.83 502.79 C 265.83 499.66 263.29 497.12 260.16 497.12 C 257.03 497.12 254.49 499.66 254.49 502.79 C 254.49 505.86 254.67 508.94 255.03 511.95 C 255.37 514.83 257.82 516.95 260.65 516.95 C 260.87 516.95 261.10 516.94 261.33 516.91 Z" fill="#f2f5f9" fill-rule="nonzero" group-id="1,3,9" node-id="312" stroke="none" target-height="19.830017" target-width="12.169998" target-x="254.49" target-y="497.12"></path><path d="M 276.90 539.27 C 274.03 535.00 271.67 530.39 269.89 525.58 C 268.80 522.65 265.54 521.15 262.61 522.24 C 259.68 523.33 258.18 526.59 259.27 529.52 C 261.36 535.16 264.13 540.57 267.50 545.58 C 268.59 547.21 270.38 548.09 272.21 548.09 C 273.30 548.09 274.39 547.78 275.36 547.13 C 277.95 545.39 278.65 541.87 276.90 539.27 Z" fill="#f2f5f9" fill-rule="nonzero" group-id="1,3,9" node-id="314" stroke="none" target-height="26.940002" target-width="20.470001" target-x="258.18" target-y="521.15"></path><path d="M 354.25 441.38 C 359.05 443.17 363.65 445.54 367.92 448.42 C 368.89 449.08 369.99 449.39 371.08 449.39 C 372.90 449.39 374.69 448.51 375.78 446.89 C 377.53 444.29 376.85 440.77 374.25 439.02 C 369.24 435.64 363.84 432.86 358.21 430.76 C 355.28 429.66 352.01 431.16 350.92 434.09 C 349.83 437.03 351.32 440.29 354.25 441.38 Z" fill="#f2f5f9" fill-rule="nonzero" group-id="1,3,9" node-id="316" stroke="none" target-height="19.730011" target-width="27.700012" target-x="349.83" target-y="429.66"></path><path d="M 388.61 470.94 C 389.65 472.80 391.58 473.85 393.56 473.85 C 394.49 473.85 395.44 473.62 396.31 473.13 C 399.04 471.61 400.02 468.16 398.50 465.42 C 395.57 460.16 392.01 455.24 387.93 450.80 C 385.81 448.50 382.23 448.35 379.92 450.46 C 377.62 452.58 377.47 456.16 379.58 458.47 C 383.08 462.25 386.11 466.45 388.61 470.94 Z" fill="#f2f5f9" fill-rule="nonzero" group-id="1,3,9" node-id="318" stroke="none" target-height="25.5" target-width="22.549988" target-x="377.47" target-y="448.35"></path><path d="M 394.47 485.15 C 395.84 490.08 396.64 495.20 396.82 500.35 C 396.93 503.41 399.44 505.81 402.48 505.81 C 402.55 505.81 402.62 505.81 402.69 505.81 C 405.82 505.70 408.26 503.07 408.15 499.94 C 407.93 493.89 407.00 487.89 405.39 482.11 C 404.55 479.10 401.43 477.33 398.41 478.17 C 395.39 479.01 393.63 482.14 394.47 485.15 Z" fill="#f2f5f9" fill-rule="nonzero" group-id="1,3,9" node-id="320" stroke="none" target-height="28.480011" target-width="14.630005" target-x="393.63" target-y="477.33"></path><path d="M 328.77 568.27 C 323.61 568.07 318.50 567.27 313.57 565.88 C 310.57 565.04 307.43 566.79 306.58 569.80 C 305.73 572.81 307.49 575.94 310.50 576.79 C 316.28 578.42 322.28 579.36 328.33 579.59 C 328.40 579.59 328.48 579.59 328.55 579.59 C 331.58 579.59 334.09 577.20 334.21 574.14 C 334.34 571.02 331.90 568.39 328.77 568.27 Z" fill="#f2f5f9" fill-rule="nonzero" group-id="1,3,9" node-id="322" stroke="none" target-height="14.550049" target-width="28.609985" target-x="305.73" target-y="565.04"></path><path d="M 358.75 562.33 C 354.09 564.48 349.17 566.08 344.12 567.08 C 341.05 567.69 339.05 570.67 339.66 573.74 C 340.19 576.44 342.56 578.31 345.21 578.31 C 345.57 578.31 345.94 578.27 346.31 578.20 C 352.24 577.03 358.02 575.15 363.49 572.63 C 366.33 571.32 367.57 567.95 366.26 565.11 C 364.95 562.25 361.59 561.02 358.75 562.33 Z" fill="#f2f5f9" fill-rule="nonzero" group-id="1,3,9" node-id="324" stroke="none" target-height="17.289978" target-width="28.52002" target-x="339.05" target-y="561.02"></path><path d="M 390.72 542.48 C 388.27 540.54 384.70 540.96 382.76 543.41 C 379.57 547.44 375.90 551.10 371.86 554.29 C 369.40 556.23 368.98 559.79 370.92 562.25 C 372.04 563.67 373.70 564.41 375.37 564.41 C 376.60 564.41 377.83 564.01 378.87 563.19 C 383.60 559.46 387.90 555.17 391.64 550.45 C 393.59 547.99 393.18 544.42 390.72 542.48 Z" fill="#f2f5f9" fill-rule="nonzero" group-id="1,3,9" node-id="326" stroke="none" target-height="23.869995" target-width="24.609985" target-x="368.98" target-y="540.54"></path><path d="M 402.26 511.25 C 399.19 510.65 396.21 512.63 395.59 515.70 C 394.59 520.74 392.98 525.65 390.82 530.31 C 389.50 533.15 390.74 536.52 393.58 537.83 C 394.35 538.19 395.16 538.36 395.96 538.36 C 398.10 538.36 400.15 537.14 401.11 535.08 C 403.65 529.60 405.53 523.83 406.71 517.92 C 407.32 514.85 405.33 511.86 402.26 511.25 Z" fill="#f2f5f9" fill-rule="nonzero" group-id="1,3,9" node-id="328" stroke="none" target-height="27.709991" target-width="17.820007" target-x="389.5" target-y="510.65"></path><path d="M 299.37 560.00 C 294.89 557.49 290.70 554.45 286.92 550.96 C 284.62 548.84 281.03 548.98 278.91 551.28 C 276.79 553.58 276.93 557.16 279.23 559.29 C 283.67 563.38 288.58 566.95 293.83 569.89 C 294.71 570.38 295.66 570.61 296.59 570.61 C 298.57 570.61 300.50 569.57 301.54 567.71 C 303.07 564.98 302.10 561.53 299.37 560.00 Z" fill="#f2f5f9" fill-rule="nonzero" group-id="1,3,9" node-id="330" stroke="none" target-height="21.769958" target-width="26.279999" target-x="276.79" target-y="548.84"></path><path d="M 331.34 437.27 C 333.95 437.27 336.58 437.42 339.16 437.73 C 339.39 437.76 339.61 437.77 339.84 437.77 C 342.67 437.77 345.12 435.65 345.46 432.77 C 345.83 429.66 343.61 426.84 340.50 426.48 C 337.48 426.12 334.40 425.94 331.34 425.94 C 328.21 425.94 325.67 428.48 325.67 431.61 C 325.67 434.74 328.21 437.27 331.34 437.27 Z" fill="#f2f5f9" fill-rule="nonzero" group-id="1,3,9" node-id="332" stroke="none" target-height="11.829987" target-width="20.159973" target-x="325.67" target-y="425.94"></path><path d="M 346.90 476.72 C 344.64 476.13 342.31 477.47 341.71 479.74 L 329.40 526.36 C 328.80 528.63 330.15 530.95 332.42 531.55 C 332.78 531.65 333.15 531.69 333.51 531.69 C 335.39 531.69 337.11 530.43 337.62 528.52 L 349.93 481.90 C 350.52 479.65 349.17 477.32 346.90 476.72 Z" fill="#f2f5f9" fill-rule="nonzero" group-id="1,3,9" node-id="334" stroke="none" target-height="55.559998" target-width="21.720001" target-x="328.8" target-y="476.13"></path><path d="M 285.09 508.87 L 313.35 526.08 C 314.04 526.50 314.80 526.70 315.56 526.70 C 316.99 526.70 318.39 525.98 319.19 524.66 C 320.41 522.65 319.78 520.04 317.77 518.82 L 295.68 505.37 L 319.01 492.14 C 321.05 490.98 321.77 488.39 320.61 486.35 C 319.45 484.31 316.86 483.59 314.82 484.75 L 285.20 501.54 C 283.89 502.28 283.07 503.66 283.05 505.17 C 283.03 506.68 283.81 508.08 285.09 508.87 Z" fill="#f2f5f9" fill-rule="nonzero" group-id="1,3,9" node-id="336" stroke="none" target-height="43.110016" target-width="38.73999" target-x="283.03" target-y="483.59"></path><path d="M 356.95 523.22 C 357.74 524.58 359.16 525.33 360.63 525.33 C 361.35 525.33 362.09 525.14 362.76 524.75 L 389.46 509.21 C 390.75 508.46 391.56 507.08 391.57 505.58 C 391.59 504.08 390.81 502.69 389.53 501.91 L 363.35 485.95 C 361.35 484.72 358.73 485.36 357.51 487.37 C 356.29 489.37 356.92 491.99 358.93 493.21 L 379.02 505.45 L 358.49 517.40 C 356.46 518.59 355.77 521.20 356.95 523.22 Z" fill="#f2f5f9" fill-rule="nonzero" group-id="1,3,9" node-id="338" stroke="none" target-height="40.610016" target-width="35.820007" target-x="355.77" target-y="484.72"></path></g><g node-id="401"><path d="M 305.88 789.81 L 387.27 757.25 L 537.91 783.19 L 663.44 646.07" fill="none" group-id="1,4" node-id="344" stroke="#f5634a" stroke-linecap="butt" stroke-width="1" target-height="143.73999" target-width="357.56" target-x="305.88" target-y="646.07"></path><path d="M 316.78 792.15 C 316.78 800.38 310.11 807.05 301.88 807.05 C 293.65 807.05 286.98 800.38 286.98 792.15 C 286.98 783.92 293.65 777.25 301.88 777.25 C 310.11 777.25 316.78 783.92 316.78 792.15 Z" fill="#ffffff" fill-rule="nonzero" group-id="1,4" node-id="346" stroke="#f5634a" stroke-linecap="butt" stroke-width="1" target-height="29.799988" target-width="29.799988" target-x="286.98" target-y="777.25"></path><path d="M 401.20 758.63 C 401.20 766.86 394.53 773.53 386.30 773.53 C 378.07 773.53 371.40 766.86 371.40 758.63 C 371.40 750.40 378.07 743.73 386.30 743.73 C 394.53 743.73 401.20 750.40 401.20 758.63 Z" fill="#ffffff" fill-rule="nonzero" group-id="1,4" node-id="348" stroke="#f5634a" stroke-linecap="butt" stroke-width="1" target-height="29.800049" target-width="29.800018" target-x="371.4" target-y="743.73"></path><path d="M 552.46 785.32 C 552.46 793.55 545.79 800.22 537.56 800.22 C 529.33 800.22 522.66 793.55 522.66 785.32 C 522.66 777.09 529.33 770.42 537.56 770.42 C 545.79 770.42 552.46 777.09 552.46 785.32 Z" fill="#ffffff" fill-rule="nonzero" group-id="1,4" node-id="350" stroke="#f5634a" stroke-linecap="butt" stroke-width="1" target-height="29.799988" target-width="29.800049" target-x="522.66" target-y="770.42"></path><path d="M 675.79 646.83 C 675.79 655.06 669.12 661.73 660.89 661.73 C 652.66 661.73 645.99 655.06 645.99 646.83 C 645.99 638.60 652.66 631.93 660.89 631.93 C 669.12 631.93 675.79 638.60 675.79 646.83 Z" fill="#ffffff" fill-rule="nonzero" group-id="1,4" node-id="352" stroke="#f5634a" stroke-linecap="butt" stroke-width="1" target-height="29.799988" target-width="29.799988" target-x="645.99" target-y="631.93"></path></g><g node-id="402"><path d="M 968.78 928.51 L 651.53 928.51 C 645.04 928.51 639.79 923.25 639.79 916.77 L 639.79 373.85 C 639.79 367.36 645.05 362.11 651.53 362.11 L 968.78 362.11 C 975.27 362.11 980.52 367.37 980.52 373.85 L 980.52 916.77 C 980.52 923.26 975.27 928.51 968.78 928.51 Z" fill="url(#SVGID_2_)" fill-rule="nonzero" group-id="1,5" node-id="357" stroke="none" target-height="566.4" target-width="340.73004" target-x="639.79" target-y="362.11"></path><path d="M 957.09 906.84 L 663.22 906.84 C 660.03 906.84 657.44 904.25 657.44 901.06 L 657.44 389.56 C 657.44 386.37 660.03 383.78 663.22 383.78 L 957.10 383.78 C 960.29 383.78 962.88 386.37 962.88 389.56 L 962.88 901.06 C 962.87 904.25 960.29 906.84 957.09 906.84 Z" fill="#ffffff" fill-rule="nonzero" group-id="1,5" node-id="359" stroke="none" target-height="523.06006" target-width="305.44" target-x="657.44" target-y="383.78"></path><path d="M 962.87 601.40 L 657.44 601.40 L 657.44 389.56 C 657.44 386.37 660.03 383.78 663.22 383.78 L 957.10 383.78 C 960.29 383.78 962.88 386.37 962.88 389.56 L 962.88 601.40 Z" fill="#856cf2" fill-rule="nonzero" group-id="1,5" node-id="361" stroke="none" target-height="217.62003" target-width="305.44" target-x="657.44" target-y="383.78"></path><path d="M 783.29 400.48 C 783.29 404.09 780.36 407.02 776.75 407.02 C 773.14 407.02 770.21 404.09 770.21 400.48 C 770.21 396.87 773.14 393.94 776.75 393.94 C 780.36 393.94 783.29 396.87 783.29 400.48 Z" fill="#ffffff" fill-rule="nonzero" group-id="1,5" node-id="363" stroke="none" target-height="13.079987" target-width="13.079956" target-x="770.21" target-y="393.94"></path><path d="M 791.30 405.63 L 849.80 405.63 C 850.37 405.63 850.83 405.17 850.83 404.60 L 850.83 395.34 C 850.83 394.77 850.37 394.31 849.80 394.31 L 791.30 394.31 C 790.73 394.31 790.27 394.77 790.27 395.34 L 790.27 404.60 C 790.27 405.17 790.73 405.63 791.30 405.63 Z" fill="#ffffff" fill-rule="nonzero" group-id="1,5" node-id="365" stroke="none" target-height="11.320007" target-width="60.559998" target-x="790.27" target-y="394.31"></path><path d="M 935.82 692.90 L 685.42 692.90 C 684.23 692.90 683.27 691.94 683.27 690.75 L 683.27 661.54 C 683.27 660.35 684.23 659.39 685.42 659.39 L 935.83 659.39 C 937.02 659.39 937.98 660.35 937.98 661.54 L 937.98 690.75 C 937.98 691.94 937.01 692.90 935.82 692.90 Z" fill="#99a2eb" fill-rule="nonzero" group-id="1,5" node-id="367" stroke="none" target-height="33.51001" target-width="254.70996" target-x="683.27" target-y="659.39"></path><path d="M 831.70 751.66 L 685.42 751.66 C 684.23 751.66 683.27 750.70 683.27 749.51 L 683.27 720.30 C 683.27 719.11 684.23 718.15 685.42 718.15 L 831.70 718.15 C 832.89 718.15 833.85 719.11 833.85 720.30 L 833.85 749.51 C 833.86 750.70 832.89 751.66 831.70 751.66 Z" fill="#99a2eb" fill-rule="nonzero" group-id="1,5" node-id="369" stroke="none" target-height="33.50995" target-width="150.58997" target-x="683.27" target-y="718.15"></path><path d="M 831.70 810.65 L 685.42 810.65 C 684.23 810.65 683.27 809.69 683.27 808.50 L 683.27 779.29 C 683.27 778.10 684.23 777.14 685.42 777.14 L 831.70 777.14 C 832.89 777.14 833.85 778.10 833.85 779.29 L 833.85 808.50 C 833.86 809.69 832.89 810.65 831.70 810.65 Z" fill="#99a2eb" fill-rule="nonzero" group-id="1,5" node-id="371" stroke="none" target-height="33.51001" target-width="150.58997" target-x="683.27" target-y="777.14"></path><path d="M 937.93 887.62 L 685.42 887.62 C 684.23 887.62 683.27 886.66 683.27 885.47 L 683.27 832.91 C 683.27 831.72 684.23 830.76 685.42 830.76 L 937.93 830.76 C 939.12 830.76 940.08 831.72 940.08 832.91 L 940.08 885.47 C 940.08 886.66 939.12 887.62 937.93 887.62 Z" fill="#6179ef" fill-rule="nonzero" group-id="1,5" node-id="373" stroke="none" target-height="56.859985" target-width="256.81" target-x="683.27" target-y="830.76"></path><path d="M 1127.67 794.90 L 900.09 794.90 C 896.09 794.90 892.84 791.65 892.84 787.65 L 892.84 657.92 C 892.84 653.92 896.09 650.67 900.09 650.67 L 1127.67 650.67 C 1131.67 650.67 1134.92 653.92 1134.92 657.92 L 1134.92 787.65 C 1134.92 791.65 1131.67 794.90 1127.67 794.90 Z" fill="#f9bc00" fill-rule="nonzero" group-id="1,5" node-id="375" stroke="none" target-height="144.23004" target-width="242.08002" target-x="892.84" target-y="650.67"></path><g node-id="407"><path d="M 923.99 644.53 L 526.92 644.53 C 522.69 644.53 519.27 641.10 519.27 636.88 L 519.27 449.19 C 519.27 444.96 522.70 441.54 526.92 441.54 L 923.99 441.54 C 928.22 441.54 931.64 444.97 931.64 449.19 L 931.64 636.87 C 931.64 641.10 928.22 644.53 923.99 644.53 Z" fill="#0b1066" fill-opacity="0.19" fill-rule="nonzero" group-id="1,5,10" node-id="379" stroke="none" target-height="202.99002" target-width="412.37" target-x="519.27" target-y="441.54"></path></g><path d="M 906.96 629.11 L 526.92 629.11 C 522.69 629.11 519.27 625.68 519.27 621.46 L 519.27 448.74 C 519.27 444.51 522.70 441.09 526.92 441.09 L 906.96 441.09 C 911.19 441.09 914.61 444.52 914.61 448.74 L 914.61 621.45 C 914.61 625.68 911.18 629.11 906.96 629.11 Z" fill="#ffffff" fill-rule="nonzero" group-id="1,5" node-id="382" stroke="none" target-height="188.01999" target-width="395.33997" target-x="519.27" target-y="441.09"></path><path d="M 937.73 692.57 L 1088.67 692.57 C 1089.28 692.57 1089.78 692.07 1089.78 691.46 L 1089.78 681.45 C 1089.78 680.84 1089.28 680.34 1088.67 680.34 L 937.73 680.34 C 937.12 680.34 936.62 680.84 936.62 681.45 L 936.62 691.46 C 936.62 692.07 937.12 692.57 937.73 692.57 Z" fill="#ffffff" fill-rule="nonzero" group-id="1,5" node-id="384" stroke="none" target-height="12.22998" target-width="153.16003" target-x="936.62" target-y="680.34"></path><path d="M 937.73 727.76 L 1088.67 727.76 C 1089.28 727.76 1089.78 727.26 1089.78 726.65 L 1089.78 716.64 C 1089.78 716.03 1089.28 715.53 1088.67 715.53 L 937.73 715.53 C 937.12 715.53 936.62 716.03 936.62 716.64 L 936.62 726.65 C 936.62 727.26 937.12 727.76 937.73 727.76 Z" fill="#ffffff" fill-rule="nonzero" group-id="1,5" node-id="386" stroke="none" target-height="12.22998" target-width="153.16003" target-x="936.62" target-y="715.53"></path><path d="M 937.73 764.79 L 1052.14 764.79 C 1052.75 764.79 1053.25 764.29 1053.25 763.68 L 1053.25 753.67 C 1053.25 753.06 1052.75 752.56 1052.14 752.56 L 937.73 752.56 C 937.12 752.56 936.62 753.06 936.62 753.67 L 936.62 763.68 C 936.62 764.29 937.12 764.79 937.73 764.79 Z" fill="#ffffff" fill-rule="nonzero" group-id="1,5" node-id="388" stroke="none" target-height="12.22998" target-width="116.630005" target-x="936.62" target-y="752.56"></path><path d="M 619.42 607.41 C 616.32 607.41 613.21 607.42 610.11 607.41 C 606.11 607.39 604.27 605.58 604.25 601.64 C 604.24 598.41 604.21 595.17 604.26 591.94 C 604.29 589.82 603.48 588.52 601.37 587.82 C 599.06 587.06 596.83 586.05 594.62 585.01 C 593.02 584.25 591.75 584.43 590.52 585.70 C 588.13 588.16 585.69 590.58 583.24 592.99 C 580.50 595.69 577.70 595.69 574.96 592.97 C 570.37 588.41 565.79 583.84 561.24 579.25 C 558.72 576.72 558.73 573.85 561.25 571.26 C 563.69 568.76 566.17 566.28 568.67 563.84 C 569.94 562.60 570.10 561.34 569.34 559.74 C 568.30 557.54 567.29 555.30 566.53 553.00 C 565.84 550.88 564.52 550.09 562.41 550.12 C 559.11 550.17 555.81 550.15 552.51 550.13 C 548.92 550.11 546.97 548.22 546.96 544.66 C 546.93 538.06 546.93 531.46 546.96 524.86 C 546.98 521.32 548.94 519.44 552.53 519.41 C 555.83 519.39 559.13 519.36 562.43 519.42 C 564.55 519.45 565.85 518.63 566.54 516.52 C 567.30 514.21 568.31 511.98 569.35 509.78 C 570.11 508.18 569.93 506.92 568.66 505.69 C 566.20 503.30 563.78 500.86 561.37 498.41 C 558.66 495.66 558.67 492.86 561.38 490.14 C 565.90 485.60 570.43 481.08 574.96 476.56 C 577.67 473.86 580.49 473.86 583.24 476.57 C 585.69 478.98 588.13 481.39 590.51 483.86 C 591.75 485.15 593.01 485.28 594.60 484.53 C 596.80 483.49 599.04 482.48 601.34 481.73 C 603.45 481.04 604.26 479.73 604.23 477.61 C 604.18 474.38 604.21 471.14 604.22 467.91 C 604.24 464.05 606.07 462.16 609.88 462.14 C 616.35 462.12 622.82 462.12 629.29 462.14 C 633.10 462.15 634.94 464.05 634.96 467.90 C 634.97 471.13 635.00 474.37 634.95 477.60 C 634.92 479.72 635.72 481.02 637.83 481.72 C 640.14 482.48 642.38 483.48 644.58 484.53 C 646.18 485.29 647.45 485.12 648.68 483.85 C 651.08 481.39 653.51 478.97 655.96 476.56 C 658.71 473.86 661.51 473.85 664.24 476.57 C 668.83 481.13 673.41 485.70 677.96 490.29 C 680.48 492.83 680.48 495.70 677.96 498.28 C 675.51 500.78 673.05 503.26 670.53 505.70 C 669.25 506.94 669.10 508.20 669.85 509.79 C 670.89 511.99 671.90 514.23 672.66 516.53 C 673.35 518.64 674.65 519.46 676.77 519.42 C 680.00 519.37 683.24 519.40 686.47 519.41 C 690.34 519.43 692.23 521.26 692.24 525.07 C 692.26 531.54 692.26 538.01 692.24 544.48 C 692.23 548.28 690.32 550.13 686.47 550.14 C 683.24 550.15 680.00 550.18 676.77 550.13 C 674.65 550.10 673.35 550.91 672.66 553.02 C 671.90 555.33 670.89 557.56 669.85 559.76 C 669.10 561.36 669.25 562.61 670.53 563.85 C 673.00 566.24 675.41 568.68 677.82 571.12 C 680.53 573.87 680.53 576.66 677.81 579.40 C 673.25 583.99 668.68 588.56 664.08 593.12 C 661.54 595.64 658.67 595.64 656.09 593.12 C 653.59 590.68 651.10 588.21 648.67 585.69 C 647.43 584.40 646.17 584.26 644.58 585.01 C 642.38 586.05 640.14 587.06 637.84 587.82 C 635.73 588.51 634.91 589.81 634.95 591.93 C 635.00 595.16 634.97 598.40 634.96 601.63 C 634.94 605.57 633.10 607.39 629.10 607.40 C 625.89 607.42 622.66 607.41 619.42 607.41 Z M 619.54 567.17 C 637.49 567.18 652.00 552.81 652.03 534.99 C 652.06 516.89 637.72 502.38 619.80 502.36 C 601.71 502.34 587.23 516.69 587.21 534.64 C 587.20 552.70 601.57 567.16 619.54 567.17 Z" fill="#f16261" fill-rule="nonzero" group-id="1,5" node-id="390" stroke="none" target-height="145.29999" target-width="145.33002" target-x="546.93" target-y="462.12"></path><path d="M 887.60 503.54 L 711.82 503.54 C 711.22 503.54 710.72 503.05 710.72 502.44 L 710.72 492.57 C 710.72 491.97 711.21 491.47 711.82 491.47 L 887.60 491.47 C 888.20 491.47 888.70 491.96 888.70 492.57 L 888.70 502.44 C 888.69 503.05 888.20 503.54 887.60 503.54 Z" fill="#6179ef" fill-rule="nonzero" group-id="1,5" node-id="392" stroke="none" target-height="12.070007" target-width="177.98004" target-x="710.72" target-y="491.47"></path><path d="M 887.60 539.40 L 711.82 539.40 C 711.22 539.40 710.72 538.91 710.72 538.30 L 710.72 528.43 C 710.72 527.83 711.21 527.33 711.82 527.33 L 887.60 527.33 C 888.20 527.33 888.70 527.82 888.70 528.43 L 888.70 538.30 C 888.69 538.91 888.20 539.40 887.60 539.40 Z" fill="#6179ef" fill-rule="nonzero" group-id="1,5" node-id="394" stroke="none" target-height="12.070007" target-width="177.98004" target-x="710.72" target-y="527.33"></path><path d="M 824.25 575.43 L 711.82 575.43 C 711.22 575.43 710.72 574.94 710.72 574.33 L 710.72 564.46 C 710.72 563.86 711.21 563.36 711.82 563.36 L 824.25 563.36 C 824.85 563.36 825.35 563.85 825.35 564.46 L 825.35 574.33 C 825.35 574.94 824.86 575.43 824.25 575.43 Z" fill="#6179ef" fill-rule="nonzero" group-id="1,5" node-id="396" stroke="none" target-height="12.070007" target-width="114.630005" target-x="710.72" target-y="563.36"></path></g></g></svg>