<?xml version="1.0" standalone="no"?><!DOCTYPE svg PUBLIC "-//W3C//DTD SVG 1.1//EN" "http://www.w3.org/Graphics/SVG/1.1/DTD/svg11.dtd"><svg height="126" node-id="1" sillyvg="true" template-height="126" template-width="126" version="1.1" viewBox="0 0 126 126" width="126" xmlns="http://www.w3.org/2000/svg" xmlns:xlink="http://www.w3.org/1999/xlink"><defs node-id="111"></defs><g node-id="384"><path d="M 106.75 81.53 C 105.34 81.32 91.93 85.72 90.50 91.73 C 89.08 97.75 78.35 104.01 73.78 102.46 C 69.21 100.92 63.22 102.57 63.22 102.57 L 59.44 104.40 L 58.58 104.81 L 58.58 104.81 L 1.00 71.56 L 65.03 34.34 L 120.98 66.65 C 122.55 67.55 123.85 68.89 124.53 70.57 C 128.31 79.79 108.05 81.71 106.75 81.53 Z" fill="#f3f6fd" fill-rule="nonzero" group-id="1" node-id="119" stroke="none" target-height="70.47" target-width="127.31" target-x="1" target-y="34.34"></path><path d="M 64.98 82.38 C 65.29 83.13 65.92 83.68 66.73 83.93 L 68.92 85.34 L 68.69 85.97 L 66.90 86.47 C 66.32 86.62 65.93 86.98 65.87 87.38 C 65.82 87.66 65.77 88.01 65.69 88.37 C 65.69 88.37 65.52 89.06 65.43 89.87 L 55.32 89.96 C 54.79 89.69 54.26 89.44 53.73 89.22 C 50.00 87.69 46.05 87.42 42.58 88.71 L 40.13 89.59 C 39.64 89.77 39.16 89.98 38.69 90.22 C 39.92 92.34 41.37 94.21 42.97 95.80 L 51.76 100.87 C 54.78 101.59 57.95 101.49 60.65 100.50 L 62.97 99.66 C 63.52 99.48 64.07 99.24 64.60 98.97 C 63.64 97.32 62.52 95.83 61.28 94.51 L 64.35 92.47 C 64.36 92.70 64.51 92.98 64.73 93.12 C 64.95 93.26 65.31 93.41 65.87 93.50 C 66.84 93.64 67.95 93.50 69.21 93.36 C 69.97 93.28 71.06 93.06 71.94 92.97 C 73.52 92.81 75.82 91.78 75.11 89.97 C 74.51 88.43 75.27 87.36 73.92 86.87 C 73.92 86.82 73.90 86.74 73.90 86.64 C 73.90 86.64 74.69 86.72 75.66 86.56 C 75.86 86.55 76.07 86.52 76.30 86.49 C 77.99 86.21 79.32 85.23 79.56 84.09 C 79.80 82.88 79.75 81.69 79.93 80.27 C 79.88 80.23 79.82 80.19 79.76 80.17 C 79.98 78.60 80.12 76.98 80.14 75.77 C 80.14 75.27 79.77 74.97 79.16 74.82 C 79.24 74.06 79.35 73.39 79.44 72.78 C 79.46 72.68 79.49 72.52 79.52 72.32 L 64.66 80.96 C 64.75 81.54 64.83 82.02 64.98 82.38 Z" fill="#e1e9f4" fill-rule="nonzero" group-id="1" node-id="121" stroke="none" target-height="29.269997" target-width="41.45" target-x="38.69" target-y="72.32"></path><path d="M 101.70 61.05 L 101.69 63.13 C 101.69 63.31 101.58 63.49 101.34 63.63 L 62.81 86.02 C 62.33 86.30 61.55 86.29 61.07 86.02 L 37.98 72.68 C 37.74 72.54 37.61 72.36 37.61 72.18 L 37.62 70.09 C 37.62 70.28 37.74 70.46 37.99 70.60 L 61.08 83.93 C 61.56 84.21 62.34 84.21 62.82 83.94 L 101.35 61.55 C 101.59 61.41 101.70 61.23 101.70 61.05 Z" fill="#e1e9f4" fill-rule="nonzero" group-id="1" node-id="123" stroke="none" target-height="25.250004" target-width="64.09" target-x="37.61" target-y="61.05"></path><path d="M 114.38 62.84 L 77.93 83.73 L 69.21 78.70 L 105.66 57.80 L 105.13 57.50 L 68.69 78.40 L 41.49 62.69 L 77.93 41.79 L 77.41 41.49 L 40.96 62.39 L 32.25 57.36 L 68.69 36.46 L 68.17 36.16 L 3.89 73.23 L 4.41 73.53 L 31.83 57.60 L 40.55 62.63 L 13.13 78.57 L 13.65 78.87 L 41.07 62.93 L 49.87 68.01 L 22.45 83.95 L 22.82 84.16 L 50.24 68.23 L 59.12 73.35 L 31.69 89.29 L 32.06 89.50 L 59.48 73.56 L 68.28 78.64 L 40.85 94.57 L 41.38 94.88 L 68.80 78.94 L 77.52 83.97 L 50.10 99.91 L 50.62 100.21 L 114.90 63.14 Z" fill="#fdfeff" fill-rule="nonzero" group-id="1" node-id="125" stroke="none" target-height="64.05" target-width="111.01" target-x="3.89" target-y="36.16"></path></g><g node-id="385"><g node-id="386"><path d="M 37.61 70.27 C 37.61 70.45 37.74 70.63 37.98 70.77 L 61.07 84.11 C 61.55 84.38 62.33 84.39 62.81 84.11 L 101.34 61.72 C 101.58 61.58 101.70 61.40 101.70 61.22 L 101.70 59.14 C 101.70 58.95 101.58 58.77 101.33 58.63 L 78.24 45.29 C 77.76 45.01 76.99 45.01 76.51 45.29 L 37.98 67.68 C 37.74 67.82 37.62 68.00 37.62 68.18 L 37.61 70.27 Z" fill="#9eb5df" fill-rule="nonzero" group-id="2,3" node-id="132" stroke="none" target-height="39.38" target-width="64.09" target-x="37.61" target-y="45.01"></path><path d="M 101.70 59.14 L 101.69 61.22 C 101.69 61.40 101.58 61.58 101.34 61.72 L 62.81 84.11 C 62.33 84.38 61.55 84.38 61.07 84.10 L 37.98 70.77 C 37.74 70.63 37.61 70.45 37.61 70.26 L 37.62 68.18 C 37.62 68.36 37.74 68.55 37.99 68.69 L 61.08 82.02 C 61.56 82.30 62.34 82.30 62.82 82.03 L 101.35 59.63 C 101.59 59.49 101.70 59.31 101.70 59.14 Z" fill="#9eb5df" fill-rule="nonzero" group-id="2,3" node-id="134" stroke="none" target-height="25.239998" target-width="64.09" target-x="37.61" target-y="59.14"></path><path d="M 101.34 58.62 C 101.82 58.90 101.83 59.36 101.35 59.63 L 62.82 82.02 C 62.34 82.30 61.56 82.30 61.08 82.02 L 37.99 68.69 C 37.51 68.41 37.50 67.96 37.98 67.68 L 76.51 45.29 C 76.99 45.01 77.76 45.01 78.24 45.29 L 101.34 58.62 Z" fill="#dee7f8" fill-rule="nonzero" group-id="2,3" node-id="136" stroke="none" target-height="37.290005" target-width="64.33" target-x="37.5" target-y="45.01"></path><g node-id="391"><g node-id="396"><path d="M 90.66 53.83 C 90.79 53.91 90.79 54.03 90.66 54.10 C 90.53 54.18 90.32 54.18 90.19 54.10 L 85.85 51.60 C 85.72 51.52 85.72 51.40 85.85 51.33 C 85.98 51.25 86.19 51.25 86.32 51.33 L 90.66 53.83 Z" fill="#9eb5df" fill-rule="nonzero" group-id="2,3,8,13" node-id="142" stroke="none" target-height="2.9300003" target-width="5.0699997" target-x="85.72" target-y="51.25"></path></g><g node-id="397"><path d="M 85.34 50.76 C 85.47 50.83 85.47 50.96 85.34 51.03 C 85.21 51.11 85.00 51.11 84.87 51.03 C 84.74 50.96 84.74 50.83 84.87 50.76 C 84.99 50.68 85.21 50.68 85.34 50.76 Z" fill="#9eb5df" fill-rule="nonzero" group-id="2,3,8,14" node-id="147" stroke="none" target-height="0.4300003" target-width="0.73000336" target-x="84.74" target-y="50.68"></path></g><g node-id="398"><path d="M 91.25 54.82 C 91.07 54.72 91.07 54.55 91.25 54.44 C 91.43 54.34 91.72 54.34 91.90 54.44 C 92.08 54.55 92.08 54.72 91.90 54.82 C 91.72 54.92 91.43 54.92 91.25 54.82 Z" fill="#9eb5df" fill-rule="nonzero" group-id="2,3,8,15" node-id="152" stroke="none" target-height="0.579998" target-width="1.0100021" target-x="91.07" target-y="54.34"></path></g><g node-id="399"><path d="M 53.16 75.11 C 53.50 75.30 53.51 75.63 53.16 75.83 C 52.82 76.03 52.26 76.03 51.91 75.83 L 48.71 73.98 C 48.37 73.78 48.36 73.46 48.71 73.26 C 49.05 73.06 49.61 73.06 49.96 73.26 L 53.16 75.11 Z" fill="#9eb5df" fill-rule="nonzero" group-id="2,3,8,16" node-id="157" stroke="none" target-height="2.9700012" target-width="5.1499977" target-x="48.36" target-y="73.06"></path></g><path d="M 100.00 59.50 L 64.05 80.39 L 40.79 66.96 L 76.75 46.07 L 84.20 50.37 C 83.61 50.71 83.61 51.27 84.21 51.61 L 90.42 55.20 C 91.01 55.54 91.96 55.54 92.55 55.19 L 100.00 59.50 Z" fill="#4c4a8b" fill-rule="nonzero" group-id="2,3,8,17" node-id="162" stroke="none" target-height="34.32" target-width="59.21" target-x="40.79" target-y="46.07"></path></g></g><g node-id="387"><g node-id="392"><g node-id="401"><g node-id="404"><g node-id="406"><g node-id="410"><path d="M 43.48 38.76 L 45.84 40.12 C 45.38 39.85 44.94 39.54 44.51 39.18 L 42.15 37.82 C 42.58 38.18 43.02 38.50 43.48 38.76 Z" fill="#3887e5" fill-rule="nonzero" group-id="2,4,9,18,21,23,27" node-id="179" stroke="none" target-height="2.2999992" target-width="3.6899986" target-x="42.15" target-y="37.82"></path></g><path d="M 42.15 37.82 L 44.51 39.18 C 47.94 32.29 52.46 27.23 56.98 24.62 C 60.94 22.33 64.91 21.92 68.16 23.81 L 65.80 22.46 C 62.55 20.57 58.29 20.81 54.33 23.09 C 49.80 25.70 45.58 30.93 42.15 37.82 Z" fill="#a6c2ff" fill-rule="nonzero" group-id="2,4,9,18,21,23,28" node-id="184" stroke="none" target-height="18.61" target-width="26.010002" target-x="42.15" target-y="20.57"></path></g><g node-id="407"><g node-id="412"><g node-id="418"><path d="M 56.98 24.62 C 52.46 27.23 47.94 32.29 44.51 39.18 C 47.97 42.08 52.50 41.92 57.02 39.31 C 61.55 36.70 66.06 31.64 69.50 24.75 C 66.03 21.84 61.50 22.00 56.98 24.62 Z" fill="#6b9ef9" fill-rule="nonzero" group-id="2,4,9,18,21,24,29,35" node-id="194" stroke="none" target-height="20.240002" target-width="24.990002" target-x="44.51" target-y="21.84"></path></g></g></g><g node-id="408"><path d="M 46.43 38.53 C 46.52 38.47 46.61 38.46 46.68 38.49 C 46.73 38.51 46.77 38.55 46.80 38.61 L 48.57 37.58 L 50.11 37.56 L 52.29 36.30 L 52.30 36.58 L 50.09 37.85 L 48.55 37.87 L 46.81 38.88 C 46.76 39.08 46.62 39.28 46.47 39.37 C 46.41 39.40 46.35 39.42 46.30 39.42 C 46.26 39.42 46.22 39.41 46.19 39.39 C 46.12 39.35 46.08 39.26 46.08 39.14 C 46.07 38.92 46.23 38.64 46.43 38.53 Z" fill="#ffffff" fill-rule="nonzero" group-id="2,4,9,18,21,25" node-id="201" stroke="none" target-height="3.119999" target-width="6.2299995" target-x="46.07" target-y="36.3"></path><path d="M 47.89 39.00 C 47.98 38.94 48.07 38.93 48.14 38.96 C 48.19 38.98 48.23 39.02 48.25 39.08 L 48.59 38.88 L 50.13 39.22 L 52.30 37.97 L 52.30 38.25 L 50.10 39.52 L 50.09 39.53 L 48.55 39.19 L 48.27 39.35 C 48.22 39.55 48.08 39.74 47.92 39.84 C 47.87 39.87 47.81 39.89 47.76 39.89 C 47.72 39.89 47.68 39.88 47.65 39.86 C 47.57 39.82 47.53 39.73 47.53 39.61 C 47.53 39.38 47.69 39.11 47.89 39.00 Z" fill="#ffffff" fill-rule="nonzero" group-id="2,4,9,18,21,25" node-id="203" stroke="none" target-height="1.9199982" target-width="4.7700005" target-x="47.53" target-y="37.97"></path><path d="M 48.61 35.27 L 48.25 35.48 C 48.21 35.68 48.07 35.88 47.91 35.97 C 47.85 36.00 47.80 36.02 47.74 36.02 C 47.71 36.02 47.67 36.01 47.64 35.99 C 47.56 35.95 47.52 35.86 47.52 35.74 C 47.52 35.52 47.68 35.24 47.88 35.13 C 47.97 35.08 48.06 35.06 48.13 35.09 C 48.18 35.11 48.22 35.15 48.24 35.21 L 48.51 35.05 L 50.04 32.94 L 52.28 31.64 L 52.28 31.92 L 50.14 33.16 L 48.61 35.27 Z" fill="#ffffff" fill-rule="nonzero" group-id="2,4,9,18,21,25" node-id="205" stroke="none" target-height="4.380001" target-width="4.7599983" target-x="47.52" target-y="31.64"></path><path d="M 48.61 36.58 L 46.80 37.63 C 46.76 37.82 46.62 38.02 46.46 38.11 C 46.40 38.15 46.35 38.16 46.29 38.16 C 46.26 38.16 46.22 38.15 46.19 38.14 C 46.11 38.09 46.07 38.01 46.07 37.89 C 46.07 37.66 46.23 37.39 46.43 37.28 C 46.52 37.22 46.61 37.21 46.68 37.24 C 46.73 37.26 46.77 37.30 46.79 37.35 L 48.52 36.36 L 50.05 34.60 L 52.29 33.31 L 52.29 33.59 L 50.14 34.83 L 48.61 36.58 Z" fill="#ffffff" fill-rule="nonzero" group-id="2,4,9,18,21,25" node-id="207" stroke="none" target-height="4.8499985" target-width="6.220001" target-x="46.07" target-y="33.31"></path><path d="M 65.39 29.18 L 65.75 28.97 C 65.80 28.77 65.93 28.58 66.09 28.48 L 66.09 28.48 C 66.19 28.43 66.29 28.42 66.37 28.46 C 66.44 28.50 66.48 28.59 66.48 28.71 C 66.48 28.94 66.33 29.21 66.13 29.32 C 66.04 29.38 65.95 29.39 65.88 29.36 C 65.83 29.34 65.79 29.30 65.77 29.24 L 65.50 29.40 L 63.97 31.51 L 61.73 32.81 L 61.73 32.53 L 63.86 31.29 L 65.39 29.18 Z" fill="#ffffff" fill-rule="nonzero" group-id="2,4,9,18,21,25" node-id="209" stroke="none" target-height="4.3900013" target-width="4.750004" target-x="61.73" target-y="28.42"></path><path d="M 63.91 26.60 L 65.45 26.58 L 67.20 25.57 C 67.24 25.37 67.38 25.18 67.54 25.09 C 67.64 25.03 67.74 25.02 67.81 25.06 C 67.89 25.11 67.93 25.19 67.93 25.31 C 67.93 25.54 67.77 25.81 67.58 25.92 C 67.48 25.98 67.40 25.99 67.32 25.96 C 67.27 25.94 67.24 25.90 67.21 25.84 L 65.44 26.87 L 65.43 26.87 L 63.89 26.89 L 61.71 28.15 L 61.71 27.87 L 63.90 26.60 L 63.91 26.60 Z" fill="#ffffff" fill-rule="nonzero" group-id="2,4,9,18,21,25" node-id="211" stroke="none" target-height="3.1299992" target-width="6.220001" target-x="61.71" target-y="25.02"></path><path d="M 65.40 27.87 L 67.20 26.83 C 67.25 26.63 67.38 26.43 67.54 26.34 C 67.64 26.28 67.74 26.27 67.82 26.31 C 67.89 26.36 67.93 26.45 67.93 26.56 C 67.93 26.79 67.78 27.06 67.58 27.18 C 67.49 27.23 67.40 27.24 67.33 27.21 C 67.28 27.19 67.24 27.15 67.22 27.10 L 65.49 28.10 L 63.96 29.85 L 61.72 31.14 L 61.72 30.86 L 63.87 29.62 L 65.40 27.87 Z" fill="#ffffff" fill-rule="nonzero" group-id="2,4,9,18,21,25" node-id="213" stroke="none" target-height="4.869999" target-width="6.209999" target-x="61.72" target-y="26.27"></path><path d="M 63.92 24.93 L 65.46 25.27 L 65.74 25.10 C 65.79 24.91 65.92 24.71 66.08 24.62 C 66.18 24.56 66.28 24.55 66.36 24.60 C 66.43 24.64 66.47 24.73 66.47 24.84 C 66.47 25.07 66.31 25.34 66.12 25.46 C 66.03 25.51 65.94 25.52 65.87 25.49 C 65.82 25.47 65.78 25.43 65.76 25.38 L 65.42 25.57 L 63.88 25.23 L 61.71 26.48 L 61.71 26.20 L 63.91 24.93 L 63.92 24.93 Z" fill="#ffffff" fill-rule="nonzero" group-id="2,4,9,18,21,25" node-id="215" stroke="none" target-height="1.9300003" target-width="4.760002" target-x="61.71" target-y="24.55"></path></g><g node-id="409"><g node-id="413"><path d="M 56.98 25.43 C 53.86 27.23 51.34 31.60 51.35 35.18 C 51.36 38.77 53.90 40.22 57.02 38.42 C 60.14 36.61 62.66 32.25 62.65 28.66 C 62.64 25.08 60.10 23.63 56.98 25.43 Z" fill="#3a3a77" fill-rule="nonzero" group-id="2,4,9,18,21,26,30" node-id="222" stroke="none" target-height="16.590002" target-width="11.32" target-x="51.34" target-y="23.63"></path></g><g node-id="414"><path d="M 54.61 38.17 L 69.18 38.36 L 70.23 36.76 L 61.11 26.59 C 60.23 26.08 53.74 37.66 54.61 38.17 Z" fill="#a6c2ff" fill-opacity="0.5" fill-rule="nonzero" group-id="2,4,9,18,21,26,31" node-id="227" stroke="none" target-height="12.280001" target-width="16.490002" target-x="53.74" target-y="26.08"></path></g><g node-id="415"><path d="M 56.99 26.35 C 54.31 27.89 52.14 31.65 52.15 34.73 C 52.16 37.81 54.34 39.05 57.02 37.50 C 59.70 35.95 61.86 32.20 61.86 29.12 C 61.85 26.04 59.67 24.80 56.99 26.35 Z" fill="#6b9ef9" fill-rule="nonzero" group-id="2,4,9,18,21,26,32" node-id="232" stroke="none" target-height="14.25" target-width="9.720001" target-x="52.14" target-y="24.8"></path></g><g node-id="416"><g node-id="419"><path d="M 54.07 30.86 C 54.02 30.88 53.98 30.91 53.94 30.95 C 53.79 31.07 53.67 31.24 53.59 31.44 C 53.50 31.64 53.48 31.85 53.52 32.00 C 53.02 33.50 53.02 34.94 53.53 35.86 C 53.49 36.06 53.51 36.24 53.60 36.35 C 53.71 36.48 53.89 36.49 54.08 36.37 C 54.19 36.31 54.29 36.22 54.38 36.10 C 54.64 35.76 54.72 35.31 54.56 35.10 C 54.48 35.01 54.37 34.98 54.24 35.01 C 53.85 34.29 53.85 33.20 54.23 32.03 C 54.36 31.91 54.47 31.75 54.55 31.57 C 54.71 31.17 54.63 30.82 54.36 30.78 C 54.27 30.77 54.17 30.80 54.07 30.86 Z" fill="#a6c2ff" fill-rule="nonzero" group-id="2,4,9,18,21,26,33,36" node-id="239" stroke="none" target-height="5.720001" target-width="1.7000008" target-x="53.02" target-y="30.77"></path></g><g node-id="420"><g node-id="430"><path d="M 58.74 31.26 L 58.69 31.50 C 58.53 32.26 58.06 33.06 57.48 33.59 L 57.30 33.75 L 57.41 34.60 L 57.65 34.39 C 58.54 33.61 59.24 32.40 59.47 31.23 L 59.53 30.93 L 58.74 31.26 Z" fill="#a6c2ff" fill-rule="nonzero" group-id="2,4,9,18,21,26,33,37,47" node-id="246" stroke="none" target-height="3.6699982" target-width="2.2299995" target-x="57.3" target-y="30.93"></path></g><g node-id="431"><path d="M 55.17 35.70 C 55.13 35.73 55.09 35.76 55.05 35.79 C 54.90 35.92 54.77 36.09 54.70 36.28 C 54.62 36.48 54.59 36.67 54.63 36.82 C 54.66 36.96 54.75 37.06 54.88 37.07 C 54.97 37.09 55.07 37.06 55.18 37.00 C 55.23 36.97 55.28 36.93 55.33 36.88 C 55.85 36.87 56.44 36.69 57.01 36.36 C 57.60 36.02 58.18 35.53 58.70 34.94 C 58.75 34.93 58.80 34.91 58.85 34.88 C 58.95 34.82 59.06 34.73 59.15 34.61 C 59.28 34.44 59.37 34.25 59.40 34.06 C 59.43 33.87 59.41 33.71 59.33 33.61 C 59.22 33.48 59.03 33.47 58.84 33.58 C 58.74 33.64 58.64 33.73 58.54 33.86 C 58.43 34.01 58.34 34.19 58.31 34.36 C 57.89 34.82 57.45 35.18 57.01 35.44 C 56.57 35.69 56.13 35.84 55.72 35.85 C 55.68 35.72 55.59 35.64 55.47 35.63 C 55.38 35.62 55.28 35.64 55.17 35.70 Z" fill="#a6c2ff" fill-rule="nonzero" group-id="2,4,9,18,21,26,33,37,48" node-id="251" stroke="none" target-height="3.619999" target-width="4.84" target-x="54.59" target-y="33.47"></path></g><g node-id="432"><path d="M 59.93 27.47 C 59.82 27.53 59.72 27.63 59.62 27.75 C 59.50 27.91 59.41 28.10 59.38 28.29 C 59.34 28.48 59.37 28.64 59.45 28.74 C 59.52 28.84 59.63 28.87 59.77 28.84 C 60.16 29.56 60.16 30.64 59.78 31.81 C 59.65 31.93 59.53 32.09 59.46 32.27 C 59.29 32.67 59.37 33.03 59.64 33.07 C 59.73 33.08 59.83 33.05 59.94 32.99 C 60.14 32.88 60.31 32.66 60.42 32.41 C 60.50 32.20 60.53 32.00 60.48 31.85 C 60.99 30.34 60.98 28.91 60.47 27.99 C 60.51 27.79 60.49 27.61 60.40 27.50 C 60.32 27.40 60.20 27.37 60.05 27.41 C 60.01 27.43 59.97 27.45 59.93 27.47 Z" fill="#a6c2ff" fill-rule="nonzero" group-id="2,4,9,18,21,26,33,37,49" node-id="256" stroke="none" target-height="5.710001" target-width="1.7000008" target-x="59.29" target-y="27.37"></path></g><g node-id="433"><path d="M 57.00 30.64 C 56.38 31.00 55.88 31.86 55.89 32.57 C 55.89 33.28 56.39 33.56 57.01 33.21 C 57.62 32.85 58.12 31.99 58.12 31.28 C 58.12 30.57 57.61 30.29 57.00 30.64 Z" fill="#a6c2ff" fill-rule="nonzero" group-id="2,4,9,18,21,26,33,37,50" node-id="261" stroke="none" target-height="3.2700005" target-width="2.2399979" target-x="55.88" target-y="30.29"></path></g><g node-id="434"><path d="M 55.27 33.26 L 54.48 33.85 L 54.54 34.08 C 54.77 34.98 55.48 35.38 56.37 35.13 L 56.61 35.06 L 56.72 34.09 L 56.54 34.13 C 55.95 34.28 55.49 34.01 55.32 33.44 L 55.27 33.26 Z" fill="#a6c2ff" fill-rule="nonzero" group-id="2,4,9,18,21,26,33,37,51" node-id="266" stroke="none" target-height="2.1200027" target-width="2.2400017" target-x="54.48" target-y="33.26"></path></g><g node-id="435"><path d="M 57.40 28.79 L 57.29 29.76 L 57.47 29.72 C 58.05 29.57 58.52 29.83 58.68 30.41 L 58.74 30.59 L 59.53 30.01 L 59.47 29.77 C 59.23 28.87 58.53 28.47 57.63 28.72 L 57.40 28.79 Z" fill="#a6c2ff" fill-rule="nonzero" group-id="2,4,9,18,21,26,33,37,52" node-id="271" stroke="none" target-height="2.1200008" target-width="2.2399979" target-x="57.29" target-y="28.47"></path></g><g node-id="436"><path d="M 56.59 29.25 L 56.36 29.46 C 55.46 30.24 54.76 31.45 54.53 32.62 L 54.47 32.92 L 55.27 32.59 L 55.32 32.35 C 55.48 31.59 55.94 30.79 56.52 30.26 L 56.71 30.10 L 56.59 29.25 Z" fill="#a6c2ff" fill-rule="nonzero" group-id="2,4,9,18,21,26,33,37,53" node-id="276" stroke="none" target-height="3.6699982" target-width="2.2399979" target-x="54.47" target-y="29.25"></path></g><path d="M 56.99 27.50 C 56.41 27.83 55.84 28.31 55.31 28.90 C 55.26 28.91 55.21 28.94 55.15 28.97 C 55.05 29.03 54.94 29.12 54.85 29.24 C 54.73 29.40 54.64 29.60 54.61 29.79 C 54.57 29.98 54.60 30.14 54.68 30.24 C 54.76 30.34 54.88 30.37 55.03 30.32 C 55.07 30.31 55.12 30.29 55.16 30.26 C 55.26 30.20 55.37 30.11 55.46 29.99 C 55.57 29.84 55.66 29.67 55.70 29.49 C 56.11 29.03 56.55 28.67 56.99 28.41 C 57.43 28.16 57.88 28.01 58.29 28.00 C 58.33 28.12 58.41 28.20 58.53 28.22 C 58.62 28.23 58.73 28.20 58.83 28.14 C 59.02 28.04 59.20 27.82 59.31 27.57 C 59.39 27.37 59.41 27.18 59.38 27.03 C 59.34 26.88 59.26 26.79 59.13 26.77 C 59.04 26.76 58.93 26.79 58.83 26.85 C 58.77 26.88 58.72 26.92 58.67 26.97 C 58.14 26.98 57.56 27.16 56.99 27.50 Z" fill="#a6c2ff" fill-rule="nonzero" group-id="2,4,9,18,21,26,33,37,54" node-id="281" stroke="none" target-height="3.6100006" target-width="4.84" target-x="54.57" target-y="26.76"></path></g></g><g node-id="417"><g node-id="421"><path d="M 58.90 31.45 C 58.71 32.31 58.20 33.20 57.54 33.79 L 57.59 34.18 C 58.41 33.47 59.05 32.35 59.26 31.29 L 58.90 31.45 Z" fill="#3887e5" fill-rule="nonzero" group-id="2,4,9,18,21,26,34,38" node-id="290" stroke="none" target-height="2.8899994" target-width="1.7199974" target-x="57.54" target-y="31.29"></path></g><g node-id="422"><path d="M 59.93 27.72 C 59.86 27.76 59.80 27.82 59.74 27.89 C 59.58 28.10 59.53 28.38 59.63 28.50 C 59.69 28.59 59.80 28.59 59.91 28.53 C 60.39 29.33 60.40 30.61 59.93 31.95 C 59.81 32.02 59.71 32.14 59.64 32.30 C 59.54 32.55 59.59 32.76 59.75 32.79 C 59.81 32.80 59.88 32.78 59.94 32.74 C 60.05 32.68 60.17 32.54 60.24 32.38 C 60.30 32.22 60.30 32.06 60.24 31.97 C 60.78 30.46 60.77 29.03 60.23 28.14 C 60.29 27.98 60.29 27.83 60.22 27.74 C 60.16 27.66 60.04 27.66 59.93 27.72 Z" fill="#3887e5" fill-rule="nonzero" group-id="2,4,9,18,21,26,34,39" node-id="295" stroke="none" target-height="5.1399994" target-width="1.25" target-x="59.53" target-y="27.66"></path></g><g node-id="423"><path d="M 55.11 33.63 L 54.75 33.90 C 54.96 34.72 55.61 35.08 56.43 34.86 L 56.48 34.41 C 55.82 34.57 55.30 34.28 55.11 33.63 Z" fill="#3887e5" fill-rule="nonzero" group-id="2,4,9,18,21,26,34,40" node-id="300" stroke="none" target-height="1.4500008" target-width="1.7299995" target-x="54.75" target-y="33.63"></path></g><g node-id="424"><path d="M 57.00 30.89 C 56.50 31.18 56.10 31.87 56.10 32.44 C 56.10 33.02 56.51 33.25 57.00 32.96 C 57.50 32.67 57.90 31.98 57.90 31.41 C 57.90 30.83 57.50 30.60 57.00 30.89 Z" fill="#3887e5" fill-rule="nonzero" group-id="2,4,9,18,21,26,34,41" node-id="305" stroke="none" target-height="2.6499996" target-width="1.800003" target-x="56.1" target-y="30.6"></path></g><g node-id="425"><path d="M 56.41 29.67 C 55.59 30.38 54.95 31.50 54.74 32.56 L 55.11 32.41 C 55.29 31.54 55.81 30.65 56.46 30.06 L 56.41 29.67 Z" fill="#3887e5" fill-rule="nonzero" group-id="2,4,9,18,21,26,34,42" node-id="310" stroke="none" target-height="2.8900013" target-width="1.7199974" target-x="54.74" target-y="29.67"></path></g><g node-id="426"><path d="M 56.99 27.74 C 56.42 28.07 55.84 28.56 55.32 29.17 C 55.27 29.17 55.21 29.18 55.16 29.22 C 55.09 29.25 55.03 29.31 54.97 29.38 C 54.81 29.59 54.76 29.87 54.86 30.00 C 54.93 30.08 55.04 30.08 55.16 30.02 C 55.22 29.98 55.29 29.92 55.34 29.85 C 55.44 29.72 55.50 29.56 55.50 29.44 C 55.97 28.89 56.48 28.46 56.99 28.17 C 57.50 27.87 58.01 27.71 58.48 27.72 C 58.49 27.84 58.54 27.93 58.64 27.94 C 58.70 27.95 58.77 27.93 58.83 27.90 C 58.94 27.83 59.06 27.70 59.13 27.54 C 59.23 27.29 59.18 27.07 59.01 27.05 C 58.95 27.04 58.89 27.06 58.83 27.10 C 58.77 27.13 58.71 27.18 58.66 27.24 C 58.14 27.23 57.56 27.41 56.99 27.74 Z" fill="#3887e5" fill-rule="nonzero" group-id="2,4,9,18,21,26,34,43" node-id="315" stroke="none" target-height="3.039999" target-width="4.470001" target-x="54.76" target-y="27.04"></path></g><g node-id="427"><path d="M 57.58 28.99 L 57.53 29.44 C 58.18 29.28 58.71 29.57 58.89 30.22 L 59.26 29.95 C 59.04 29.14 58.40 28.77 57.58 28.99 Z" fill="#3887e5" fill-rule="nonzero" group-id="2,4,9,18,21,26,34,44" node-id="320" stroke="none" target-height="1.4499989" target-width="1.7299995" target-x="57.53" target-y="28.77"></path></g><g node-id="428"><path d="M 54.06 31.11 C 53.95 31.17 53.84 31.30 53.77 31.46 C 53.70 31.63 53.70 31.79 53.76 31.87 C 53.23 33.38 53.23 34.82 53.77 35.71 C 53.71 35.87 53.71 36.02 53.78 36.11 C 53.85 36.19 53.96 36.19 54.08 36.12 C 54.14 36.09 54.21 36.03 54.26 35.96 C 54.43 35.75 54.47 35.47 54.37 35.34 C 54.31 35.26 54.20 35.26 54.09 35.32 C 53.61 34.52 53.61 33.24 54.08 31.89 C 54.20 31.83 54.30 31.70 54.36 31.55 C 54.46 31.30 54.41 31.08 54.25 31.06 C 54.19 31.05 54.13 31.07 54.06 31.11 Z" fill="#3887e5" fill-rule="nonzero" group-id="2,4,9,18,21,26,34,45" node-id="325" stroke="none" target-height="5.1399994" target-width="1.2400017" target-x="53.23" target-y="31.05"></path></g><path d="M 55.17 35.95 C 55.06 36.02 54.95 36.15 54.88 36.31 C 54.78 36.55 54.83 36.77 54.99 36.80 C 55.05 36.80 55.11 36.79 55.18 36.75 C 55.23 36.72 55.29 36.67 55.34 36.61 C 55.86 36.62 56.44 36.44 57.01 36.11 C 57.59 35.77 58.16 35.29 58.68 34.68 C 58.73 34.68 58.79 34.66 58.85 34.63 C 58.91 34.59 58.98 34.54 59.03 34.46 C 59.20 34.25 59.24 33.98 59.14 33.85 C 59.08 33.77 58.96 33.76 58.85 33.83 C 58.78 33.87 58.72 33.92 58.66 34.00 C 58.56 34.13 58.50 34.29 58.50 34.42 C 58.04 34.96 57.52 35.39 57.01 35.68 C 56.50 35.98 55.99 36.14 55.52 36.13 C 55.52 36.01 55.46 35.92 55.36 35.91 C 55.30 35.90 55.24 35.91 55.17 35.95 Z" fill="#3887e5" fill-rule="nonzero" group-id="2,4,9,18,21,26,34,46" node-id="330" stroke="none" target-height="3.040001" target-width="4.460003" target-x="54.78" target-y="33.76"></path></g></g></g></g></g></g><g node-id="388"><path d="M 61.95 56.76 C 56.69 59.80 56.66 64.72 61.88 67.76 C 67.11 70.79 75.61 70.79 80.86 67.76 C 86.12 64.72 86.15 59.80 80.93 56.76 C 75.70 53.73 67.20 53.73 61.95 56.76 Z" fill="#83a1cc" fill-rule="nonzero" group-id="2,5" node-id="341" stroke="none" target-height="17.060001" target-width="29.490002" target-x="56.66" target-y="53.73"></path></g><g node-id="389"><path d="M 62.93 57.34 C 58.22 60.05 58.19 64.46 62.87 67.18 C 67.55 69.90 75.17 69.90 79.88 67.18 C 84.59 64.46 84.61 60.05 79.93 57.33 C 75.25 54.61 67.64 54.62 62.93 57.34 Z" fill="#2a2a5e" fill-rule="nonzero" group-id="2,6" node-id="346" stroke="none" target-height="15.290001" target-width="26.420002" target-x="58.19" target-y="54.61"></path></g><g node-id="390"><g node-id="393"><path d="M 71.40 56.64 C 73.04 56.72 74.94 56.66 77.48 56.88 C 77.48 56.88 76.24 51.48 75.96 49.34 C 77.82 49.65 79.72 49.80 81.57 49.70 C 81.61 52.86 81.48 56.80 81.21 59.43 C 80.90 62.55 74.62 60.43 71.40 59.13 L 71.40 56.64 Z" fill="#ecb4bf" fill-rule="nonzero" group-id="2,7,10" node-id="353" stroke="none" target-height="13.209999" target-width="10.209999" target-x="71.4" target-y="49.34"></path><path d="M 81.74 52.70 C 80.62 53.83 77.00 53.07 76.20 51.72 C 75.76 49.63 75.34 48.25 75.26 47.24 C 75.05 44.67 76.64 42.77 79.14 43.41 C 80.79 43.83 81.96 45.28 82.01 46.98 C 82.05 48.81 81.80 50.57 81.74 52.70 Z" fill="#3887e5" fill-rule="nonzero" group-id="2,7,10" node-id="355" stroke="none" target-height="11.060001" target-width="7" target-x="75.05" target-y="42.77"></path></g><g node-id="394"><path d="M 69.82 34.61 C 71.02 34.25 76.36 38.86 76.36 38.86 L 76.86 42.71 C 76.86 42.71 76.36 44.53 77.24 46.19 C 78.11 47.85 71.72 46.35 71.72 46.35 L 71.45 44.18 L 69.73 43.44 C 69.19 43.20 68.85 42.67 68.85 42.08 C 68.86 41.66 68.86 41.14 68.83 40.60 C 68.83 40.60 68.55 34.98 69.82 34.61 Z" fill="#ecb4bf" fill-rule="nonzero" group-id="2,7,11" node-id="360" stroke="none" target-height="13.599998" target-width="9.559998" target-x="68.55" target-y="34.25"></path></g><g node-id="395"><g node-id="402"><g node-id="405"><path d="M 79.93 66.44 C 76.15 64.88 69.85 67.06 65.03 68.17 C 65.41 68.79 65.54 71.60 65.69 72.80 C 63.21 72.36 57.65 76.10 56.21 77.09 C 55.95 77.27 55.65 77.41 55.32 77.51 C 55.26 77.52 55.21 77.53 55.19 77.53 C 54.96 77.56 54.43 77.78 54.03 77.95 L 56.28 79.25 C 56.36 79.14 56.43 79.01 56.47 78.86 L 56.48 78.85 C 56.56 78.56 56.87 78.30 57.28 78.15 C 58.99 77.49 61.06 76.96 63.88 75.91 C 63.88 75.91 64.18 77.65 64.50 79.17 C 64.45 79.25 64.41 79.33 64.38 79.40 C 64.51 80.00 64.58 80.51 64.66 80.96 L 79.52 72.32 C 79.76 70.88 80.37 67.39 80.58 66.74 C 80.38 66.64 80.16 66.54 79.93 66.44 Z" fill="#e1e9f4" fill-opacity="0.5" fill-rule="nonzero" group-id="2,7,12,19,22" node-id="369" stroke="none" target-height="16.080002" target-width="26.550003" target-x="54.03" target-y="64.88"></path></g></g><g node-id="403"><path d="M 65.03 68.17 C 66.55 65.20 67.55 55.61 67.09 53.70 C 67.01 53.35 67.04 52.74 67.13 52.01 C 67.28 50.77 67.44 49.91 67.59 49.34 C 67.75 48.70 68.10 48.12 68.60 47.69 L 71.57 45.12 C 73.34 45.11 76.57 44.94 76.77 43.17 C 76.77 43.17 82.66 42.27 81.21 50.37 C 80.03 57.03 80.05 60.91 80.03 63.90 C 80.02 65.20 80.45 65.63 80.58 66.74 C 80.36 66.89 80.13 67.04 79.88 67.18 C 75.84 69.52 69.66 69.84 65.03 68.17 Z" fill="#6b9ef9" fill-rule="nonzero" group-id="2,7,12,20" node-id="375" stroke="none" target-height="27.569996" target-width="17.630005" target-x="65.03" target-y="42.27"></path></g><path d="M 68.17 34.59 C 68.17 34.23 68.39 33.73 68.66 33.50 C 68.90 33.29 69.29 33.05 69.86 32.93 C 70.86 32.70 71.95 32.93 73.18 33.13 C 73.93 33.26 74.99 33.58 75.85 33.71 C 77.40 33.96 79.53 35.50 78.53 38.19 C 77.52 40.89 78.50 42.64 75.89 43.14 C 74.65 43.38 72.33 43.36 72.16 43.29 C 72.16 43.29 73.64 39.36 72.70 39.26 C 71.80 39.17 71.49 39.45 71.33 40.44 C 71.33 40.44 71.32 40.52 71.32 40.52 C 71.08 40.49 70.80 40.39 70.50 40.27 C 70.63 39.01 70.64 37.58 70.64 37.58 C 70.64 37.58 68.15 35.93 68.17 34.59 Z" fill="#a0533f" fill-rule="nonzero" group-id="2,7,12" node-id="378" stroke="none" target-height="10.68" target-width="11.379997" target-x="68.15" target-y="32.7"></path><path d="M 53.83 54.31 C 54.02 54.40 55.08 55.17 55.12 55.19 C 55.17 55.19 55.26 55.14 55.11 54.96 C 54.96 54.78 53.06 53.44 53.29 53.20 C 53.52 52.97 53.60 53.04 53.80 53.23 C 54.00 53.43 55.32 54.50 55.32 54.50 C 55.32 54.50 55.42 54.53 55.32 54.35 C 55.21 54.18 53.81 53.04 53.50 52.46 C 53.45 52.37 53.41 52.00 53.79 52.16 C 54.17 52.31 55.77 53.93 55.77 53.93 C 55.77 53.93 55.93 53.93 55.80 53.75 C 55.68 53.58 54.41 51.95 54.40 51.89 C 54.40 51.85 54.48 51.52 54.77 51.76 C 55.05 52.00 55.83 52.79 56.47 53.58 C 57.10 54.38 57.04 53.96 57.04 53.96 C 57.04 53.96 56.86 53.45 56.81 53.34 C 56.64 53.01 56.77 52.40 57.26 52.35 C 57.29 52.34 57.32 52.37 57.32 52.40 L 57.35 53.04 C 57.36 53.30 57.76 53.85 57.76 53.85 C 57.76 53.85 58.02 54.25 58.06 54.82 C 58.06 54.82 58.06 54.82 58.06 54.82 C 58.10 55.26 58.37 55.64 58.75 55.88 C 60.34 56.86 62.34 57.65 64.98 59.22 C 64.98 59.22 66.20 53.80 66.87 51.76 C 68.41 52.84 70.06 53.79 71.77 54.50 C 70.45 57.37 68.63 60.87 67.25 63.13 C 65.31 66.30 58.97 59.18 57.51 57.46 C 57.28 57.19 57.00 56.98 56.68 56.84 C 56.62 56.81 56.58 56.80 56.56 56.79 C 56.19 56.73 55.08 55.88 55.03 55.85 C 54.99 55.81 53.54 54.63 53.53 54.48 C 53.52 54.32 53.64 54.21 53.83 54.31 Z" fill="#ecb4bf" fill-rule="nonzero" group-id="2,7,12" node-id="380" stroke="none" target-height="14.780003" target-width="18.709995" target-x="53.06" target-y="51.52"></path><path d="M 71.06 56.91 C 69.56 57.44 66.19 55.56 66.06 54.00 C 66.57 51.93 66.78 50.50 67.15 49.56 C 68.07 47.15 70.32 46.12 72.30 47.78 C 73.61 48.87 74.03 50.69 73.34 52.24 C 72.59 53.91 72.03 55.01 71.06 56.91 Z" fill="#3887e5" fill-rule="nonzero" group-id="2,7,12" node-id="382" stroke="none" target-height="11.32" target-width="7.970001" target-x="66.06" target-y="46.12"></path></g></g></g></svg>